<svg xmlns="http://www.w3.org/2000/svg" height="20" viewBox="0 96 960 960" width="20"><path d="M124 930q-16.851 5-30.425-7.5Q80 910 80 890q0-13.895 10.42-27.158Q100.838 849.579 118 842q19-9 38.5-20t57.5-11q54 0 75.269 20 21.269 20 57.731 20 36 0 57-20t75-20q54 0 76 20t58 20q36 0 56.357-20T744 811q38 0 57.5 11t39.5 20q17.161 7.846 27.581 20.923Q879 876 879 890q0 20-13.574 32.5Q851.851 935 835 930q-29-8-46-21.5T744 895q-35.538 0-56.269 20T613 935q-54 0-76-20t-58-20q-36 0-57 20t-75 20q-54 0-75.4-20-21.4-20-58.086-20Q186 895 169.5 908.5 153 922 124 930Zm0-178q-16.851 5-30.425-7.5Q80 732 80 712q0-13.895 10.42-27.158Q100.838 671.579 118 664q19-8 38.5-19t57.5-11q54 0 75.689 19.5 21.688 19.5 56.995 19.5Q383 673 404 653.5t75-19.5q54 0 75.269 19.5Q575.538 673 612 673q36 0 57-19.5t75-19.5q38 0 58 11.5t39 19.5q17.161 7.615 27.581 20.308Q879 698 879 712q0 20-13.574 32.5Q851.851 757 835 752q-29-8-46-21t-44.529-13q-36.706 0-56.589 19.5Q668 757 612 757q-56.418 0-76.709-19.5Q515 718 479 718t-56 19.5Q403 757 347 757t-76.5-19.5Q250 718 214 718q-28 0-44.5 13T124 752Zm223-173q-22.585 0-39.792-9Q290 561 274 550l130-130-37-37q-25-25-51.801-39.143Q288.398 329.714 253 325q-19.583-3-33.292-17.5Q206 293 206 273q0-23.294 16-38.647Q238 219 260 221q52.875 4.985 91.784 22.433 38.908 17.447 76.818 55.333L684 554q-16 11-32.5 18t-39.5 7q-36.462 0-57.731-19.5T479 540q-54 0-75 19.5T347 579Zm321-163q-42 0-71-29t-29-71q0-42 29-71t71-29q42 0 71 29t29 71q0 42-29 71t-71 29Z"/></svg>